<?xml version="1.0" encoding="UTF-8"?>
<svg width="13px" height="13px" viewBox="0 0 13 13" version="1.1" xmlns="http://www.w3.org/2000/svg" xmlns:xlink="http://www.w3.org/1999/xlink">
    <!-- Generator: Sketch 52.5 (67469) - http://www.bohemiancoding.com/sketch -->
    <title>pen</title>
    <desc>Created with Sketch.</desc>
    <g id="Page-1" stroke="none" stroke-width="1" fill="none" fill-rule="evenodd">
        <g id="一对多主界面" transform="translate(-528.000000, -230.000000)" fill="#FFFFFF">
            <g id="视频窗口" transform="translate(3.000000, 46.000000)">
                <g id="视频上" transform="translate(274.000000, 6.000000)">
                    <path d="M263.931372,180.23698 C263.970828,180.380531 263.993329,180.524576 263.999469,180.685411 C264.005427,180.838279 263.977856,181.000331 263.924525,181.155372 C263.871176,181.310413 263.77541,181.467066 263.637307,181.617301 C263.490562,181.767765 263.359801,181.893589 263.245681,182.010705 C263.131363,182.119722 263.033407,182.220163 262.94378,182.312128 C262.846022,182.412454 262.756,182.496386 262.674208,182.57207 L259.016572,179.352924 C259.164008,179.218475 259.335328,179.050892 259.539766,178.857926 C259.744188,178.664911 259.907887,178.513657 260.038846,178.395932 C260.211565,178.260578 260.38547,178.157239 260.577908,178.09362 C260.761919,178.030148 260.947214,177.998972 261.133612,178.000026 C261.319993,178.000931 261.490227,178.01861 261.66125,178.06037 C261.832373,178.102146 261.986837,178.15268 262.10741,178.204481 C262.374793,178.32321 262.67987,178.545063 263.014181,178.862552 C263.339867,179.180386 263.607069,179.516491 263.798405,179.863608 C263.853136,179.966222 263.900426,180.093264 263.931372,180.23698 Z M257.645897,180.725838 L261.304241,183.96105 C261.304241,183.96105 257.035463,188.358021 256.782746,188.61724 C256.530128,188.876557 256.374873,189.027351 256.32569,189.069572 C256.202763,189.178935 256.063656,189.305038 255.9072,189.423701 C255.751056,189.550529 255.585679,189.653423 255.410787,189.732548 C255.236191,189.819673 254.986256,189.933826 254.652538,190.067452 C254.318622,190.200896 253.967636,190.327 253.599812,190.453761 C253.23179,190.580457 252.880229,190.690495 252.553637,190.791545 C252.226668,190.884514 251.975037,190.950438 251.815223,190.980709 C251.478032,191.025728 251.248014,190.994272 251.132709,190.861815 C251.017798,190.737292 250.975265,190.513381 251.01393,190.197785 C251.03286,190.027963 251.082735,189.784481 251.163638,189.467256 C251.252573,189.133702 251.332884,188.800543 251.430132,188.466611 C251.5271,188.124679 251.616431,187.807141 251.706947,187.5138 C251.797265,187.220459 251.874398,187.02425 251.929228,186.909423 C251.999037,186.737658 252.077652,186.581679 252.165501,186.441354 C252.2454,186.317555 252.374993,186.159618 252.546115,185.983886 C252.61938,185.908662 257.645897,180.725838 257.645897,180.725838 Z" id="pen"></path>
                </g>
            </g>
        </g>
    </g>
</svg>